<?xml version="1.0" encoding="utf-8"?>
<svg data-name="logo" viewBox="0 0 323.23 163.7" preserveAspectRatio="xMidYMid slice"
     xmlns="http://www.w3.org/2000/svg">

    <path class="cls-3"
          d="M 160.451 58.249 C 175.019 11.137 225.896 -12.346 271.712 6.226 C 331.514 30.656 341.629 110.922 289.136 148.88 C 261.487 169.019 221.06 168.586 194.044 147.684 C 221.281 167.633 260.874 167.32 287.648 146.85 C 337.315 109.053 325.663 31.802 266.424 11.481 C 242.555 3.542 215.188 7.893 195.553 23.781 C 183.025 33.601 173.739 44.929 169.466 60.053 L 160.451 58.249 Z"
          style=""/>
    <path class="cls-1"
          d="M 184.591 88.68 C 180.801 101.38 167.441 108.61 154.731 104.82 C 124.581 94.51 137.581 50.94 168.441 58.82 C 181.141 62.61 188.371 75.97 184.581 88.68 L 184.591 88.68 Z"/>
    <path class="cls-2"
          d="M 179.87 87.276 C 176.86 97.366 166.24 103.116 156.14 100.106 C 132.18 91.916 142.51 57.286 167.04 63.546 C 177.13 66.556 182.88 77.176 179.87 87.276 Z"/>
    <path class="cls-3"
          d="M 0 58.271 C 14.568 11.159 65.445 -12.324 111.261 6.248 C 171.063 30.678 181.178 110.944 128.685 148.902 C 101.036 169.041 60.609 168.608 33.593 147.706 C 60.83 167.655 100.423 167.342 127.197 146.872 C 176.864 109.075 165.212 31.824 105.973 11.503 C 82.104 3.564 54.737 7.915 35.102 23.803 C 22.574 33.623 13.288 44.951 9.015 60.075 L 0 58.271 Z"
          style="transform-origin: 81.357px 81.792px;" transform="matrix(-1, 0, 0, -1, -0.000004, -0.000005)"/>
</svg>